<svg xmlns="http://www.w3.org/2000/svg" version="1.1" xmlns:xlink="http://www.w3.org/1999/xlink" xmlns:svgjs="http://svgjs.dev/svgjs" width="1000" height="416" viewBox="0 0 1000 416"><g transform="matrix(1,0,0,1,-0.6060606060606801,0.30146380671237694)"><svg viewBox="0 0 396 165" data-background-color="#000011" preserveAspectRatio="xMidYMid meet" height="416" width="1000" xmlns="http://www.w3.org/2000/svg" xmlns:xlink="http://www.w3.org/1999/xlink"><g id="tight-bounds" transform="matrix(1,0,0,1,0.24000000000003752,-0.11957098102774921)"><svg viewBox="0 0 395.5199999999999 165.2391419620555" height="165.2391419620555" width="395.5199999999999"><g><svg viewBox="0 0 395.52000000000004 165.23914196205553" height="165.2391419620555" width="395.5199999999999"><g transform="matrix(1,0,0,1,0,115.30401144161553)"><svg viewBox="0 0 395.52000000000004 49.93513052044" height="49.93513052044" width="395.52000000000004"><g id="textblocktransform"><svg viewBox="0 0 395.52000000000004 49.93513052044" height="49.93513052044" width="395.52000000000004" id="textblock"><g><svg viewBox="0 0 395.52000000000004 49.93513052044" height="49.93513052044" width="395.52000000000004"><g transform="matrix(1,0,0,1,0,0)"><svg width="395.52000000000004" viewBox="2 -38 304.53 38.45" height="49.93513052044" data-palette-color="#ffffff"><path d="M14 0Q12.3 0 11-0.83 9.7-1.65 9.4-2.9L9.4-2.9Q9.3-3.2 8.5-6.9L8.5-6.9Q7.25-13.15 5.55-18.7L5.55-18.7Q4.4-22.55 3.65-25.5L3.65-25.5 2.15-30.9Q2-31.45 2-31.9L2-31.9Q2-33.45 3.2-34.38 4.4-35.3 6.2-35.3L6.2-35.3Q7.4-35.3 8.18-34.77 8.95-34.25 9.25-33L9.25-33Q9.6-31.5 9.93-30.38 10.25-29.25 10.45-28.4L10.45-28.4Q11.7-24.15 12.5-20.35L12.5-20.35Q12.75-19.25 13.4-15.8L13.4-15.8Q13.85-13.65 14.25-11.85 14.65-10.05 14.8-10.05L14.8-10.05Q14.95-10.05 15.33-11 15.7-11.95 15.98-12.78 16.25-13.6 16.4-14.05L16.4-14.05Q16.6-14.75 17.45-17.15L17.45-17.15Q18.15-19 18.57-19.93 19-20.85 19.7-21.55 20.4-22.25 21.4-22.25L21.4-22.25Q22.8-22.25 23.7-21 24.6-19.75 25.55-17.05L25.55-17.05Q28-10.15 28.5-10.15L28.5-10.15Q28.8-10.15 29.65-15.55L29.65-15.55Q29.85-16.55 30.05-17.73 30.25-18.9 30.5-20.25L30.5-20.25Q31.8-26.95 33.2-32.95L33.2-32.95Q33.75-35.25 36.55-35.25L36.55-35.25Q38.3-35.25 39.45-34.35 40.6-33.45 40.6-32.05L40.6-32.05Q40.6-31.65 40.45-31.1L40.45-31.1Q39.35-26.95 38.15-21.7L38.15-21.7 37.45-18.75Q36.65-15.4 35.83-11.3 35-7.2 34.75-6.05L34.75-6.05 34.2-3.2Q33.9-1.7 32.75-0.9 31.6-0.1 29.8-0.1L29.8-0.1Q28-0.1 26.78-0.95 25.55-1.8 24.55-3.65L24.55-3.65Q24.4-3.9 23.1-6.65L23.1-6.65Q21.75-9.65 21.55-9.65L21.55-9.65Q21.35-9.65 20.55-7.3L20.55-7.3Q19.5-4.5 19.1-3.7L19.1-3.7Q17.3 0 14 0L14 0ZM62.55-0.3Q57.3-0.3 53.35-2.38 49.4-4.45 47.25-8.28 45.1-12.1 45.1-17.3L45.1-17.3Q45.1-22.55 47.3-26.68 49.5-30.8 53.42-33.13 57.35-35.45 62.4-35.45L62.4-35.45Q67.6-35.45 71.77-33.02 75.95-30.6 78.32-26.4 80.7-22.2 80.7-17.1L80.7-17.1Q80.7-12.05 78.37-8.25 76.05-4.45 71.95-2.38 67.85-0.3 62.55-0.3L62.55-0.3ZM62.85-6.8Q65.85-6.8 68.25-8 70.65-9.2 72.05-11.6 73.45-14 73.45-17.4L73.45-17.4Q73.45-20.75 72.12-23.38 70.8-26 68.35-27.48 65.9-28.95 62.7-28.95L62.7-28.95Q59.5-28.95 57.17-27.48 54.85-26 53.6-23.43 52.35-20.85 52.35-17.55L52.35-17.55Q52.35-12.35 55.27-9.58 58.2-6.8 62.85-6.8L62.85-6.8ZM97.15 0.15Q92.25 0.15 89.97-0.9 87.7-1.95 86.95-4.4 86.2-6.85 86.2-11.95L86.2-11.95Q86.2-17.7 86.72-22.5 87.25-27.3 88.15-32.6L88.15-32.6Q88.35-33.8 89.37-34.52 90.4-35.25 92-35.25L92-35.25Q93.7-35.25 94.57-34.43 95.45-33.6 95.45-32.2L95.45-32.2Q95.45-31.9 95.35-31.3L95.35-31.3Q94.3-25.15 93.75-20.83 93.2-16.5 93.2-11.75L93.2-11.75Q93.2-9.3 93.42-8.15 93.65-7 94.32-6.55 95-6.1 96.45-6.1L96.45-6.1Q99.55-6.1 107.15-7.5L107.15-7.5Q107.4-7.55 107.85-7.55L107.85-7.55Q109.15-7.55 109.92-6.58 110.7-5.6 110.7-4.3L110.7-4.3Q110.7-1.65 106.85-0.95L106.85-0.95Q103.4-0.3 101.62-0.08 99.85 0.15 97.15 0.15L97.15 0.15ZM129.74-28.75Q127.69-28.75 126.54-28.7L126.54-28.7Q126.74-24.3 126.79-20.85L126.79-20.85Q127.49-20.9 128.99-20.9L128.99-20.9Q131.84-20.9 133.72-20.8 135.59-20.7 137.04-20.35L137.04-20.35Q138.44-20 139.09-19.25 139.74-18.5 139.74-17.2L139.74-17.2Q139.74-15.75 138.97-14.85 138.19-13.95 136.59-14.1L136.59-14.1Q132.59-14.5 129.19-14.5L129.19-14.5Q127.54-14.5 126.79-14.45L126.79-14.45Q126.74-9.8 126.44-4.8L126.44-4.8 126.34-3.05Q126.24-1.7 125.32-0.88 124.39-0.05 122.69-0.05L122.69-0.05Q120.94-0.05 119.94-0.9 118.94-1.75 119.04-3.1L119.04-3.1Q119.49-8.7 119.54-13.95L119.54-13.95 118.44-13.8Q117.29-13.65 116.57-14.6 115.84-15.55 115.84-17.05L115.84-17.05Q115.84-18.65 116.67-19.33 117.49-20 118.99-20.25L118.99-20.25 119.49-20.35Q119.44-25.05 119.19-28.55L119.19-28.55 118.79-28.55Q117.19-28.55 116.44-29.25 115.69-29.95 115.69-31.7L115.69-31.7Q115.69-33.35 116.32-34.02 116.94-34.7 118.14-34.85L118.14-34.85 118.69-34.9Q118.64-35.05 118.64-35.25L118.64-35.25Q118.54-36.5 119.57-37.25 120.59-38 122.39-38L122.39-38Q125.69-38 125.99-35.3L125.99-35.3 125.99-35.15 130.04-35.15Q132.69-35.15 135.42-34.98 138.14-34.8 139.39-34.55L139.39-34.55Q140.94-34.25 141.59-33.43 142.24-32.6 142.24-31.35L142.24-31.35Q142.24-29.85 141.44-28.95 140.64-28.05 139.24-28.2L139.24-28.2Q133.99-28.75 129.74-28.75L129.74-28.75ZM178.39 0.05Q174.64 0.05 171.66-1.53 168.69-3.1 167.01-5.68 165.34-8.25 165.34-11.2L165.34-11.2Q165.34-13.1 166.31-13.95 167.29-14.8 168.84-14.8L168.84-14.8Q172.49-14.8 172.64-11.75L172.64-11.75Q172.79-9.2 174.49-7.83 176.19-6.45 178.39-6.45L178.39-6.45Q180.29-6.45 181.79-7.3 183.29-8.15 183.29-9.8L183.29-9.8Q183.29-11.1 182.34-11.98 181.39-12.85 180.11-13.33 178.84-13.8 176.59-14.45L176.59-14.45Q173.69-15.25 171.44-16.2 169.19-17.15 167.21-19.28 165.24-21.4 165.24-24.75L165.24-24.75Q165.24-27.8 166.91-30.25 168.59-32.7 171.44-34.08 174.29-35.45 177.69-35.45L177.69-35.45Q181.24-35.45 184.11-33.98 186.99-32.5 188.64-30.05 190.29-27.6 190.29-24.9L190.29-24.9Q190.29-21.6 186.69-21.6L186.69-21.6Q185.14-21.6 184.36-22.35 183.59-23.1 183.14-24.8L183.14-24.8Q182.69-26.5 181.31-27.75 179.94-29 177.69-29L177.69-29Q175.49-29 173.99-27.83 172.49-26.65 172.49-24.65L172.49-24.65Q172.49-23.25 173.61-22.6 174.74-21.95 177.94-21L177.94-21Q178.24-20.9 178.64-20.78 179.04-20.65 179.49-20.5L179.49-20.5Q182.24-19.65 184.54-18.55 186.84-17.45 188.69-15.3 190.54-13.15 190.54-9.95L190.54-9.95Q190.54-7.05 188.91-4.78 187.29-2.5 184.51-1.23 181.74 0.05 178.39 0.05L178.39 0.05ZM227.79-19.25Q228.69-19.25 229.49-18.43 230.29-17.6 230.29-15.95L230.29-15.95Q230.29-14.3 229.49-13.5 228.69-12.7 227.74-12.7L227.74-12.7 227.34-12.7 227.59-3.35Q227.64-1.75 226.66-0.83 225.69 0.1 223.99 0.1L223.99 0.1Q222.34 0.1 221.34-0.78 220.34-1.65 220.29-3.15L220.29-3.15 219.99-12.8 207.24-13 206.39-2.25Q206.19 0.35 202.79 0.35L202.79 0.35Q200.89 0.35 199.94-0.43 198.99-1.2 199.09-2.75L199.09-2.75 199.89-13.1 199.59-13.1Q198.39-13.1 197.71-13.98 197.04-14.85 197.04-16.4L197.04-16.4Q197.04-17.95 197.79-18.78 198.54-19.6 199.79-19.6L199.79-19.6 200.44-19.6 201.49-33.1Q201.59-34.45 202.64-35.3 203.69-36.15 205.34-36.15L205.34-36.15Q207.09-36.15 207.99-35.15 208.89-34.15 208.79-32.55L208.79-32.55 207.74-19.5 219.79-19.35 219.39-32.75Q219.34-34.25 220.31-35.2 221.29-36.15 223.04-36.15L223.04-36.15Q224.69-36.15 225.69-35.23 226.69-34.3 226.74-32.95L226.74-32.95 227.14-19.25 227.79-19.25ZM253.73-0.3Q248.48-0.3 244.53-2.38 240.58-4.45 238.43-8.28 236.28-12.1 236.28-17.3L236.28-17.3Q236.28-22.55 238.48-26.68 240.68-30.8 244.61-33.13 248.53-35.45 253.58-35.45L253.58-35.45Q258.78-35.45 262.96-33.02 267.13-30.6 269.51-26.4 271.88-22.2 271.88-17.1L271.88-17.1Q271.88-12.05 269.56-8.25 267.23-4.45 263.13-2.38 259.03-0.3 253.73-0.3L253.73-0.3ZM254.03-6.8Q257.03-6.8 259.43-8 261.83-9.2 263.23-11.6 264.63-14 264.63-17.4L264.63-17.4Q264.63-20.75 263.31-23.38 261.98-26 259.53-27.48 257.08-28.95 253.88-28.95L253.88-28.95Q250.68-28.95 248.36-27.48 246.03-26 244.78-23.43 243.53-20.85 243.53-17.55L243.53-17.55Q243.53-12.35 246.46-9.58 249.38-6.8 254.03-6.8L254.03-6.8ZM291.78-34.85Q295.83-34.85 299.21-33.38 302.58-31.9 304.56-29.23 306.53-26.55 306.53-23.15L306.53-23.15Q306.53-19.95 304.78-17.4 303.03-14.85 300.01-13.43 296.98-12 293.28-12L293.28-12Q291.58-12 289.96-12.25 288.33-12.5 287.28-12.85L287.28-12.85 287.18-2.85Q287.18-1.4 286.16-0.48 285.13 0.45 283.43 0.45L283.43 0.45Q281.73 0.45 280.71-0.5 279.68-1.45 279.78-3.05L279.78-3.05Q279.98-8.25 279.98-14.7L279.98-14.7Q279.98-20.8 279.73-25.55L279.73-25.55 279.58-25.45Q279.08-25.2 278.68-25.2L278.68-25.2Q277.83-25.2 277.28-26.15 276.73-27.1 276.73-28.35L276.73-28.35Q276.73-29.35 277.33-29.98 277.93-30.6 279.13-31.35L279.13-31.35 279.53-31.6 279.53-32.25Q279.53-33.85 280.43-34.68 281.33-35.5 283.33-35.5L283.33-35.5Q285.33-35.5 286.11-35.13 286.88-34.75 286.88-34.35L286.88-34.35 286.88-34.3Q289.33-34.85 291.78-34.85L291.78-34.85ZM292.08-17.9Q294.78-17.9 296.51-19.5 298.23-21.1 298.23-23.4L298.23-23.4Q298.23-25.75 296.36-27.13 294.48-28.5 291.53-28.5L291.53-28.5Q289.93-28.5 287.03-27.9L287.03-27.9Q287.08-27.05 287.08-25.75L287.08-25.75Q287.08-23.75 287.18-21.05L287.18-21.05Q287.28-19.55 287.28-18.85L287.28-18.85Q288.03-18.5 289.46-18.2 290.88-17.9 292.08-17.9L292.08-17.9Z" opacity="1" transform="matrix(1,0,0,1,0,0)" fill="#ffffff" class="undefined-text-0" data-fill-palette-color="primary" id="text-0"></path></svg></g></svg></g></svg></g></svg></g><g transform="matrix(1,0,0,1,134.3053331971182,0)"><svg viewBox="0 0 126.90933360576368 103.51552556887214" height="103.51552556887214" width="126.90933360576368"><g><svg xmlns="http://www.w3.org/2000/svg" xmlns:xlink="http://www.w3.org/1999/xlink" version="1.1" x="8" y="0" viewBox="0 2 100.232 93.55" enable-background="new 0 0 100 100" xml:space="preserve" width="110.90933360576368" height="103.51552556887214" class="icon-icon-0" data-fill-palette-color="accent" id="icon-0"><g fill="#ff3e3e" data-fill-palette-color="accent"><path fill-rule="evenodd" clip-rule="evenodd" d="M36.163 71.443c0.794 0.611 1.527 1.283 2.48 1.736 0.692-1.098 1.815-2.092 2.108-3.597 0.112-0.568-0.075-1.135 0-1.738 0.172-1.372 0.658-2.773 0.746-4.217-0.16-0.006-0.172-0.159-0.373-0.124-0.983 1.395-2.182 3.165-1.985 5.335C38.094 69.652 36.893 70.313 36.163 71.443z" fill="#ff3e3e" data-fill-palette-color="accent"></path><path fill-rule="evenodd" clip-rule="evenodd" d="M41.87 74.296c0.473 0.726 1.809 0.589 2.356 1.241 4.033 0.93 7.601 2.322 10.667 4.218 0.474-2.71-0.146-5.391-0.992-7.195-0.915-0.588-1.603-1.345-1.736-2.48-0.164-1.382-0.508-2.171-0.621-3.35-0.041-0.438 0.084-0.966 0-1.364-0.06-0.288-0.345-0.541-0.495-0.868-0.601-1.309-1.196-2.368-2.357-2.854-0.187 0.525 0.33 0.982 0.125 1.116-0.201-0.677-0.715-0.264-0.745 0.248 0.023-0.355 0.016-0.677-0.373-0.62-0.39 0.089 0.341 0.709 0 0.745-0.797-0.442-0.436-2.044-1.364-2.357-0.507 1.353-0.378 3.343-1.364 4.218-0.167 1.871-1.118 3.749-0.248 5.583-0.482 0.096-0.697 0.459-1.117 0.619C43.226 72.428 42.249 73.064 41.87 74.296z" fill="#ff3e3e" data-fill-palette-color="accent"></path><path fill-rule="evenodd" clip-rule="evenodd" d="M58.244 81.243c1.354 0.299 2.365 0.941 3.845 1.117 0.047-0.487 0.408-0.809 0.619-1.241 1.04-2.119 1.064-5.258 1.118-8.558-1.257-1.728-3.101-2.79-4.342-4.519C59.141 67.564 59.068 67 58.367 67c-0.083 0-0.165 0-0.248 0 0.106 1 0.71 2.938 0.868 4.764 0.278 0.42 0.817-0.514 0.868-0.284C58.801 74.228 58.049 77.245 58.244 81.243z" fill="#ff3e3e" data-fill-palette-color="accent"></path><path fill-rule="evenodd" clip-rule="evenodd" d="M49.974 2C22.374 2 0 24.374 0 51.974c0 13.99 5.756 26.632 15.021 35.703-0.224-0.601-0.122-1.231 0.178-1.844 2.188-1.072 3.373-3.233 3.226-6.327-0.034-0.702-0.479-1.768-0.249-2.729 0.978-0.79 1.816-0.451 2.729-0.621 1.645-0.305 2.944-1.497 3.969-2.231 0.417-0.3 0.907-0.447 1.365-0.745 2.095-1.361 3.222-2.899 6.327-2.232 0.214-0.613 0.565-1.089 1.24-1.24 0.924-1.14 1.693-2.833 2.605-4.218 0.173-0.264 0.487-0.346 0.62-0.62 0.161-0.331 0.111-0.84 0.249-1.241 0.169-0.492 0.528-0.858 0.62-1.24 0.208-0.859-0.067-1.379-0.248-1.86-0.54-1.435-0.71-2.981-0.745-4.59-0.469-0.179-0.238 0.341-0.62 0.248-0.623-1.628-0.442-2.841-0.744-4.838-0.364-0.001-0.42 0.574-0.744 0.248-0.189-0.847 0.702-1.147 0.372-1.736-0.37-0.356-0.368 0.361-0.868 0.248 0.145-1.013 0.766-1.55 0.744-2.73-0.18-0.067-0.641 0.146-0.62-0.124 0.387-0.854 0.843-1.637 0.992-2.729-0.39-0.141-0.301 0.195-0.496 0.249-0.463-0.998 0.7-1.991 0.372-2.853-0.401-0.154-0.094 0.4-0.496 0.248 0.21-1.774 1.229-2.74 2.232-3.722 0.259-1.147 0.96-1.851 0.993-3.225 0.348-0.232 0.522-0.637 0.62-1.117-0.165-0.304-0.461 0.136-0.496-0.125 0.206-0.333 0.67-0.951 0-1.116 0.359-0.509 0.796-0.94 0.992-1.613-0.002-0.205-0.344-0.069-0.373-0.248 1.172-0.806 0.737-2.802 0.373-4.218 0.181-0.108 0.393-0.187 0.372-0.497-0.268-0.683-0.753-1.149-1.116-1.737 0.226-0.674 0.447-1.325 0.495-1.86 0.293-0.002 0.365 0.214 0.746 0.124-0.778-1.074 0.227-2.457 0.992-3.101 1.049 0.059 1.212 1.187 1.861 1.86 0.459 0.477 1.186 0.611 1.612 1.117 0.301 0.357 0.407 0.821 0.621 1.241 0.458 0.121 0.669 0.488 1.365 0.372 0.368 0.541 1.051 0.768 1.364 1.364 0.483 1.212 1.015 2.375 1.24 3.846 1.144 0.675 2.435 1.204 2.605 2.853-0.615 0.304-1.269-0.036-1.985 0 0.15 0.402 0.561 0.742 0.62 1.24 0.101 0.85-0.431 1.492-0.249 2.233 0.289 1.167 1.498 1.033 1.985 2.232-0.234 0.056-0.748-0.168-0.62 0.249 0.582 0.369 1.191 0.71 1.736 1.116-0.46-0.088-0.532 0.211-0.992 0.124 0.02 0.559 0.768 0.391 0.744 0.993-0.256 0.075-0.469 0.191-0.372 0.62 0.36 0.136 0.881 0.112 1.24 0.248-0.115 0.298-0.498 0.328-0.372 0.868 0.681 0.395 0.979 1.173 1.239 1.985 0.803 0.396 1.598 0.801 2.234 1.364 0.039 0.168 0.177 0.236 0.123 0.497 1.241 0.5 1.529 1.953 2.357 2.729 1.018 0.952 2.617 1.594 3.721 2.233 0.423 0.244 0.668 0.534 1.118 0.869 0.64 0.477 1.809 0.211 2.479 0.867 0.535 1.109 1.608 1.501 2.233 2.358 0.651 0.891 0.736 1.991 1.612 2.852 1.12 0.163 1.729 0.836 2.48 1.366 0 0.413 0.404 0.422 0.374 0.867 1.821 1.363 1.46 4.396 1.983 5.954 0.732 2.171 1.281 3.718 3.598 4.094 1.37 0.223 2.864-0.421 3.722 0.495-1.489-0.041-1.979 0.916-3.102 1.24-0.391 0.228 0.417 0.832 0 1.03C78.448 73.012 78.061 74 78.091 74c-0.373 0-0.744 0-1.116 0 0.06 0-0.228 0.271-0.373 0.582-0.459-0.2-0.91-0.632-1.612-0.591-0.072 0.218 0.15 0.634-0.123 0.647-0.345-0.193-0.69-0.433-1.116-0.542 0.018 0.307 0.022 0.577-0.249 0.597-1.114-0.333-1.508-1.781-2.604-1.751-0.394-0.971-0.593-2.143-0.993-3.105 0.114-1.027-0.077-1.056-0.123-1.989-0.167-0.245-0.866 0.039-0.869-0.372 0.097-0.511-0.19-0.639-0.123-1.117-0.625 0.169-0.411-0.5-0.621-0.745-0.158-0.174-0.608-0.055-0.621-0.373-0.205-0.538-0.093-1.395-0.62-1.612-1.002 2.14 0.309 3.739 0.994 5.582 0.098 0.267 0.097 0.943 0.37 1.489 0.028 0.055 0.313 0.153 0.369 0.248 0.177 0.296 0.744 1.085 0.744 1.115 0-0.021-0.563 0.634-0.625 0.745-0.408 0.726-0.327 0.976-0.504 1.736-0.497 2.126-1.973 3.97-1.382 6.327-0.65 0.798-1.342 1.589-1.649 2.729 1.104 0.674 1.886 1.601 3.155 2.109 1.199 1.737 3.247 2.771 4.239 4.713C73.788 90.803 74 93.026 75 93.44v2.11c15-8.563 25.232-24.863 25.232-43.577C100.232 24.374 77.574 2 49.974 2z" fill="#ff3e3e" data-fill-palette-color="accent"></path></g></svg></g></svg></g><g><rect width="134.30533319711813" height="4.503201603387977" y="98.01232396548416" x="261.2146668028819" fill="#ff3e3e" data-fill-palette-color="accent"></rect><rect width="134.30533319711813" height="4.503201603387977" y="98.01232396548416" x="5.684341886080802e-14" fill="#ff3e3e" data-fill-palette-color="accent"></rect><rect width="134.30533319711813" height="4.503201603387977" y="89.0059207587082" x="261.2146668028819" fill="#ff3e3e" data-fill-palette-color="accent"></rect><rect width="134.30533319711813" height="4.503201603387977" y="89.0059207587082" x="5.684341886080802e-14" fill="#ff3e3e" data-fill-palette-color="accent"></rect></g></svg></g><defs></defs></svg><rect width="395.5199999999999" height="165.2391419620555" fill="none" stroke="none" visibility="hidden"></rect></g></svg></g></svg>